<?xml version="1.0" standalone="no"?>
<!DOCTYPE svg PUBLIC "-//W3C//DTD SVG 20010904//EN"
 "http://www.w3.org/TR/2001/REC-SVG-20010904/DTD/svg10.dtd">
<svg version="1.0" xmlns="http://www.w3.org/2000/svg"
 width="142.000000pt" height="142.000000pt" viewBox="0 0 142.000000 142.000000"
 preserveAspectRatio="xMidYMid meet">
<metadata>
Created by potrace 1.14, written by Peter Selinger 2001-2017
</metadata>
<g transform="translate(0.000000,142.000000) scale(0.100000,-0.100000)"
fill="#000000" stroke="none">
<path d="M0 775 l0 -645 710 0 710 0 0 645 0 645 -710 0 -710 0 0 -645z m496
373 c24 -46 14 -153 -21 -248 -34 -91 -40 -173 -12 -178 29 -6 57 27 57 67 1
92 76 174 158 175 40 1 47 -2 47 -18 0 -14 -11 -22 -44 -30 -53 -13 -80 -45
-92 -111 -10 -52 1 -85 29 -85 30 0 44 37 40 109 -3 61 -1 66 18 69 32 5 43
-18 46 -98 2 -58 6 -75 18 -75 19 0 35 34 55 118 22 87 57 127 112 127 36 0
78 -20 95 -44 4 -6 8 -32 8 -57 0 -45 -21 -86 -59 -115 -12 -9 -11 -15 4 -37
9 -15 21 -27 26 -27 16 0 42 52 50 100 17 110 75 173 157 174 40 1 47 -2 47
-19 0 -12 -8 -21 -20 -23 -79 -13 -118 -62 -113 -144 2 -43 7 -54 22 -56 32
-7 46 25 46 105 0 64 2 73 18 73 31 0 42 -22 42 -86 0 -105 26 -128 56 -49 26
69 74 59 51 -10 -22 -67 -80 -105 -126 -82 -22 11 -32 11 -59 0 -27 -11 -38
-11 -67 1 -33 14 -34 14 -59 -19 -21 -27 -26 -45 -26 -92 -1 -137 -71 -213
-137 -151 -17 16 -23 32 -23 65 0 52 11 75 55 123 39 41 34 70 -15 98 -33 19
-40 48 -12 56 57 18 105 125 68 151 -39 29 -71 -7 -101 -117 -26 -97 -78 -139
-141 -113 -22 9 -34 8 -56 -2 -23 -12 -32 -12 -64 2 -34 14 -42 14 -76 0 -41
-16 -83 -8 -104 21 -10 13 -19 13 -60 3 -27 -7 -61 -18 -76 -25 -15 -8 -38
-14 -53 -14 l-25 0 0 -112 c0 -62 -4 -119 -9 -126 -4 -8 -19 -12 -32 -10 l-24
3 -3 269 c-2 282 0 297 40 275 13 -7 29 -6 52 2 42 15 82 5 97 -24 19 -35 27
-91 19 -141 -6 -40 -5 -46 11 -46 10 0 21 6 26 13 4 6 10 91 13 187 6 204 14
230 75 230 29 0 37 -5 51 -32z"/>
<path d="M440 1059 c0 -31 4 -48 10 -44 6 3 10 26 10 51 0 24 -4 44 -10 44 -5
0 -10 -23 -10 -51z"/>
<path d="M190 891 c-5 -11 -10 -53 -10 -94 0 -74 0 -74 25 -70 13 3 29 11 35
18 17 21 24 118 11 143 -14 27 -47 28 -61 3z"/>
<path d="M899 510 c-9 -29 -9 -44 -2 -51 19 -19 33 1 33 47 0 55 -15 57 -31 4z"/>
</g>
</svg>
