<?xml version="1.0" encoding="iso-8859-1"?>
<!-- Generator: Adobe Illustrator 19.0.0, SVG Export Plug-In . SVG Version: 6.00 Build 0)  -->
<svg version="1.1" id="Layer_1" xmlns="http://www.w3.org/2000/svg" xmlns:xlink="http://www.w3.org/1999/xlink" x="0px" y="0px"
	 viewBox="0 0 512 512" style="enable-background:new 0 0 512 512;" xml:space="preserve">
<path style="fill:#8460C8;" d="M475.767,324.537H36.231l-26.16,162.576C7.971,500.167,18.052,512,31.273,512h449.454
	c13.221,0,23.302-11.833,21.202-24.886L475.767,324.537z"/>
<path style="opacity:0.1;enable-background:new    ;" d="M475.767,324.537H36.231l-7.649,47.53
	c12.646,23.691,37.564,39.412,65.692,39.412h323.448c28.128,0,53.046-15.72,65.692-39.412L475.767,324.537z"/>
<path style="fill:#9C7CD3;" d="M445.7,266.515h-379.4c-28.423,0-50.082,25.46-45.526,53.517l0,0
	c5.854,36.046,36.984,62.528,73.503,62.528h323.448c36.518,0,67.648-26.482,73.503-62.528l0,0
	C495.782,291.975,474.123,266.515,445.7,266.515z"/>
<path style="fill:#FDD05F;" d="M294.488,457.004h-76.971c-15.852,0-28.75-12.897-28.75-28.75v-31.106
	c0-15.854,12.897-28.752,28.75-28.752h76.971c15.852,0,28.75,12.897,28.75,28.752v31.106
	C323.239,444.106,310.341,457.004,294.488,457.004z M221.902,396.721c-2.656,0-4.81,2.153-4.81,4.81v22.338
	c0,2.645,2.164,4.81,4.81,4.81h68.202c2.645,0,4.81-2.164,4.81-4.81v-22.337c0-2.646-2.165-4.811-4.811-4.811H221.902z"/>
<path style="opacity:0.1;enable-background:new    ;" d="M298.525,452.968h-76.971c-15.852,0-28.75-12.897-28.75-28.75v-31.106
	c0-6.901,2.445-13.241,6.514-18.202c-6.435,5.277-10.55,13.286-10.55,22.238v31.106c0,15.852,12.897,28.75,28.75,28.75h76.971
	c8.952,0,16.961-4.115,22.237-10.549C311.765,450.522,305.426,452.968,298.525,452.968z"/>
<path style="fill:#8460C8;" d="M425.095,266.515h-38.625v-97.42c0-71.94-58.528-130.468-130.467-130.468
	S125.536,97.153,125.536,169.093v97.42H86.911v-97.42C86.911,75.855,162.765,0,256.003,0s169.092,75.855,169.092,169.093V266.515z"
	/>
<path style="fill:#FDD05F;" d="M131.483,231.231H81.529c-4.223,0-7.645,3.422-7.645,7.645v27.637h65.244v-27.637
	C139.128,234.654,135.704,231.231,131.483,231.231z"/>
<rect x="73.887" y="255.998" style="opacity:0.1;enable-background:new    ;" width="65.246" height="10.514"/>
<path style="opacity:0.4;fill:#FFFFFF;enable-background:new    ;" d="M131.483,231.231h-12.608
	c-1.006,1.888-1.581,4.041-1.581,6.33c0,7.448,6.037,13.485,13.485,13.485c3.155,0,6.051-1.092,8.349-2.907v-9.261
	C139.128,234.654,135.704,231.231,131.483,231.231z"/>
<path style="fill:#FDD05F;" d="M430.476,231.231h-49.952c-4.223,0-7.645,3.422-7.645,7.645v27.637h65.244v-27.637
	C438.122,234.654,434.699,231.231,430.476,231.231z"/>
<rect x="372.884" y="255.998" style="opacity:0.1;enable-background:new    ;" width="65.246" height="10.514"/>
<path style="opacity:0.4;fill:#FFFFFF;enable-background:new    ;" d="M430.476,231.231h-12.608
	c-1.006,1.888-1.581,4.041-1.581,6.33c0,7.448,6.037,13.485,13.485,13.485c3.155,0,6.051-1.092,8.348-2.907v-9.261
	C438.122,234.654,434.699,231.231,430.476,231.231z"/>
<path style="fill:#FDD05F;" d="M439.215,480.241h-47.979c-5.713,0-10.345-4.631-10.345-10.345v-16.711
	c0-5.713,4.631-10.345,10.345-10.345h47.979c5.713,0,10.345,4.631,10.345,10.345v16.711
	C449.558,475.61,444.927,480.241,439.215,480.241z"/>
<g>
	<path style="opacity:0.3;fill:#FFFFFF;enable-background:new    ;" d="M409.619,464.854c-5.88,0-10.645,4.766-10.645,10.645
		c0,1.706,0.412,3.314,1.125,4.743h19.039c0.713-1.43,1.125-3.036,1.125-4.743C420.264,469.619,415.497,464.854,409.619,464.854z
		 M439.215,442.841h-22.842c-0.01,0.264-0.04,0.522-0.04,0.788c0,12.126,9.83,21.956,21.956,21.956c4.126,0,7.972-1.159,11.27-3.138
		v-9.261C449.558,447.474,444.927,442.841,439.215,442.841z"/>
	<path style="opacity:0.3;fill:#FFFFFF;enable-background:new    ;" d="M294.488,368.395h-35.132
		c-2.154,4.846-3.361,10.207-3.361,15.852c0,4.364,0.725,8.555,2.045,12.472h32.062c2.646,0,4.811,2.165,4.811,4.811v21.793
		c0.055,0,0.109,0.004,0.163,0.004c11.067,0,21.051-4.607,28.161-11.999v-14.182C323.239,381.294,310.341,368.395,294.488,368.395z
		 M276.363,441.16c-12.88,0-24.301,6.233-31.421,15.844h49.546c4.046,0,7.897-0.844,11.392-2.359
		C298.716,446.388,288.153,441.16,276.363,441.16z"/>
</g>
<g>
</g>
<g>
</g>
<g>
</g>
<g>
</g>
<g>
</g>
<g>
</g>
<g>
</g>
<g>
</g>
<g>
</g>
<g>
</g>
<g>
</g>
<g>
</g>
<g>
</g>
<g>
</g>
<g>
</g>
</svg>
